# xmcd CD database file
#
# Track frame offsets:
#	150
#	23400
#	48870
#	73011
#	89565
#	105562
#	122630
#	146092
#	163546
#	184395
#	199207
#	226357
#	249748
#	267075
#	278865
#
# Disc length: 3907 seconds
#
# Revision: 0
# Processed by: cddbd v1.5.2PL0 Copyright (c) Steve Scherf et al.
# Submitted via: CDex 1.51
#
DISCID=d60f410f
DTITLE=Artisti vari - NANS 190
DYEAR=2009
DGENRE=New Age
TTITLE0=Michael Stribling - Afterglow
TTITLE1=Lis Addison - Treecrown
TTITLE2=Silvard - Collage
TTITLE3=Ultramarin - Vagues du soliel
TTITLE4=Brian Rolland - Millennium calypso
TTITLE5=Andrea Ceccomori - Holograms
TTITLE6=Marshall Styler - A love like this
TTITLE7=Lawrence Blatt - Fibonacci's dream
TTITLE8=Capitanata - Soul earth
TTITLE9=Steven C - Just Grand
TTITLE10=Mahanta Das - Reiki beatitudine
TTITLE11=Dyan Garris - Illusions
TTITLE12=Parish - Twins
TTITLE13=Peter Miller - Somwhere in the hills
TTITLE14=Marc Enfroy - Unbounded
EXTD=YEAR: 2009
EXTT0=
EXTT1=
EXTT2=
EXTT3=
EXTT4=
EXTT5=
EXTT6=
EXTT7=
EXTT8=
EXTT9=
EXTT10=
EXTT11=
EXTT12=
EXTT13=
EXTT14=
PLAYORDER=
